<svg xmlns="http://www.w3.org/2000/svg" width="15.036" height="17" viewBox="0 0 15.036 17">
  <path id="_019-garbage" data-name="019-garbage" d="M14.9,2.523H11.19V.664A.65.65,0,0,0,10.555,0H5.48a.65.65,0,0,0-.634.664V2.523H1.134a.665.665,0,0,0,0,1.328H2.308V16.336A.65.65,0,0,0,2.942,17H13.093a.65.65,0,0,0,.634-.664V3.852H14.9a.665.665,0,0,0,0-1.328Zm-8.787-1.2H9.921v1.2H6.115Zm6.344,14.344H3.577V3.852h8.882Zm-5.5-9.961v8.1a.635.635,0,1,1-1.269,0v-8.1a.635.635,0,1,1,1.269,0Zm3.383,0v8.1a.635.635,0,1,1-1.269,0v-8.1a.635.635,0,1,1,1.269,0Zm0,0" transform="translate(-0.5)" fill="#707070"/>
</svg>
