<svg xmlns="http://www.w3.org/2000/svg" width="17.491" height="17.491" viewBox="0 0 17.491 17.491">
  <path id="_006-edit" data-name="006-edit" d="M16.225,1.288a4.366,4.366,0,0,0-6.178-.017l-.007.007-.005.006L.884,10.43a.683.683,0,0,0-.2.4L.005,16.728a.683.683,0,0,0,.758.757l5.86-.683a.683.683,0,0,0,.4-.195l.013-.013.007-.006.006-.006L16.21,7.455a4.369,4.369,0,0,0,.015-6.166Zm-5.7,1.439,1.639,1.639L3.975,12.553l-1.64-1.64Zm-9.061,13.3.422-3.635L5.1,15.6Zm5.1-.888L4.942,13.519l8.187-8.186,1.635,1.634Zm9.111-9.194L11.545,1.817a3,3,0,0,1,4.129,4.129Zm0,0" transform="translate(0 0)" fill="#707070"/>
</svg>
